<svg id="Layer_1" data-name="Layer 1" xmlns="http://www.w3.org/2000/svg" viewBox="0 0 1024 1025.31"><defs><style>.cls-1{fill:#becaef;}.cls-2{fill:#405ff4;}.cls-3{fill:#fefefe;}.cls-4{fill:#fdfdfd;}.cls-5{fill:#7e92e5;}.cls-6{fill:#94a5eb;}.cls-7{fill:#9da9d5;}.cls-8{fill:#8794c4;}</style></defs><title>telos-black</title><rect width="80" height="80"/><path d="M62.1,512.56q0-253-.1-506.06c0-4.29.79-5.45,5.32-5.45Q513,1.25,958.78,1c5,0,5.58,1.26,5.58,5.81q-.19,506.36,0,1012.72c0,4.63-.76,5.76-5.63,5.76q-445.74-.23-891.47,0c-4.62,0-5.27-1.29-5.27-5.5Q62.17,766.18,62.1,512.56Z"/><path class="cls-1" d="M283.52,140.36a349.07,349.07,0,0,1,98.86-57.94c195.81-75,415,41.18,460.52,245.88,25.82,116.2-1.81,220.34-81.16,309.81-20,22.5-44.21,40-69.94,55.41a263.27,263.27,0,0,1-88.59,32.33q-84.39,14.76-163.5-18.09a282.7,282.7,0,0,1-102.78-72.94q-61.33-68.12-72.72-159.36c-5.33-42.34-.88-83.71,11.85-124.24,3-9.59,5.61-19.53,11.8-27.86,1.11-.46,1.77.1,2.29,1,.76,2,0,3.82-.6,5.67-10.13,28.92-14.6,58.79-12.48,89.27,3.83,55.07,24.2,103.17,62.34,143.59a226.2,226.2,0,0,0,167.78,71.89c36.24-.18,70.49-8.26,102.61-24.71,45-23.06,78.59-57.71,101.93-102.5,6-11.44,10.89-23.3,15.84-35.18,4.61-8.07,6.54-17.11,8.87-25.92a300.92,300.92,0,0,0,9.7-67,284.68,284.68,0,0,0-98.6-225c-44.27-38.26-95.48-61.1-153.45-68-45.44-5.43-90-.54-133.07,15.48a282.49,282.49,0,0,0-68.54,36.46c-2.33,1.7-4.58,3.73-7.71,3.94C283.79,142,283,141.63,283.52,140.36Z"/><path class="cls-2" d="M284.81,141.9c37-27.66,77.91-46.41,123.52-54.44,55.52-9.78,109.76-4.88,161.63,17.3,83.87,35.86,139.32,98,166.47,185.09,7.28,23.34,10.62,47.41,11.39,71.92a289.61,289.61,0,0,1-16.57,106.71c-.7,2-.9,4.25-3,5.47-1.61-3-.09-5.74.66-8.48a245.9,245.9,0,0,0,9-56.47q3.4-89.55-54.53-157.52c-38.77-45.49-88.13-72.32-147.63-78.86-64.37-7.07-122.19,9.79-172.59,50.85-24.72,20.14-43.86,44.81-58.6,73-2.54,4.84-5.38,9.51-7.91,14.35-1.16,1.63-3,2.88-3.1,5.14a6.18,6.18,0,0,1-.57,1.42c-1.53,2-2.15,4.74-4.57,6.1a281.83,281.83,0,0,0-24.54,129.2c2.85,62.2,23.45,118.14,62.32,167q52.93,66.48,133.52,94a282.49,282.49,0,0,0,69.06,14.11q84.13,6.65,158.66-32.74c1.36-.71,2.66-1.7,4.36-1.48-17.89,12.37-37.47,21.52-57.67,29.27-194,74.37-408.6-35.23-459.7-236.66C145.59,372.46,170.22,269,244.31,177.77c6.83-8.4,15.23-15.52,22.9-23.24,3.64-1.14,5.3-5,8.77-6.38C278.61,145.61,281,142.69,284.81,141.9Z"/><path class="cls-3" d="M638.91,965.7c-24.45,0-41.4-14-46.76-39.67-3.71-17.74-1.94-35,8.52-50.44s25.66-20.75,43.65-19.11c16.62,1.51,29.4,9.68,36.4,24.7,10,21.37,9.92,43.13-2.45,63.72C669.51,959.45,655.76,965.82,638.91,965.7Z"/><path class="cls-3" d="M775.66,965.41c-13.88,0-26.28-3.33-33.84-16.45a22.3,22.3,0,0,1-3.28-9.88c-.1-2.25-3.08-6.18,1.8-7.08,3.89-.71,7.12-.69,8.08,5,1.78,10.67,8.75,17,19.37,19.25,7.79,1.65,15.48,1.63,23-1.31,8.33-3.27,12.53-9.58,12.91-18.4s-4.34-14.31-11.92-17.65c-9.5-4.19-19.9-5.33-29.72-8.48-8.23-2.64-15.53-6.42-19.33-14.72-5.94-13-1.07-28,11.76-34.57,12.63-6.48,25.85-6.87,39-1.28,10.24,4.37,15.44,12.68,16.82,23.53.2,1.57,1.11,4.12-1.85,3.6-2.46-.43-6,2.4-7.39-2.07-6-18.84-24.31-26.25-41.22-16.68-6.45,3.65-10,9.19-9.87,16.72.14,7.23,4.19,11.9,10.5,14.84,10.33,4.82,21.78,5.76,32.5,9.28,12.26,4,19.39,11.58,20.25,22.23,1.6,19.76-10,32.69-30.5,34.05C780.35,965.55,778,965.41,775.66,965.41Z"/><path class="cls-3" d="M353.34,910.61c0-15.62.09-31.24-.07-46.86,0-3.54.5-5.06,4.65-5,20.11.25,40.22.15,60.33.06,2.93,0,4.59.19,4.6,3.95s-1.15,4.55-4.67,4.51c-16.59-.17-33.19.12-49.78-.2-4.59-.09-5.49,1.33-5.34,5.56.33,9.36.25,18.74,0,28.11-.08,3.4,1,4.19,4.26,4.15,14.84-.17,29.68,0,44.51-.13,3.42,0,5.27.29,5.23,4.61s-2.44,4-5.22,4c-14.84,0-29.68.09-44.51-.09-3.27,0-4.33.76-4.26,4.15q.32,16.69,0,33.38c-.07,3.56,1.32,4.07,4.4,4,17.38-.13,34.75,0,52.13-.14,3.49,0,4.69.68,4.63,4.44-.06,3.55-1.35,4-4.42,4-20.69-.12-41.39-.16-62.08,0-3.66,0-4.52-1-4.48-4.53C353.45,942.63,353.34,926.62,353.34,910.61Z"/><path class="cls-4" d="M260.19,914.88c0-14.24-.17-28.48.11-42.72.08-4.22-1.21-5.23-5.23-5.07-8,.32-16,0-24,.17-3.1.08-4-.87-3.88-3.92.13-2.72-.13-4.64,3.81-4.6,22.63.2,45.25.15,67.88,0,3.13,0,4.36.62,4.45,4.1.11,3.92-1.48,4.45-4.8,4.37-7.8-.2-15.61.19-23.4-.16-4.28-.19-5.11,1.37-5.09,5.3.15,28.28.08,56.57.08,84.85,0,5.53-2.94,7.49-8.36,5.83-2.68-.82-1.53-2.85-1.54-4.31C260.15,944.14,260.19,929.51,260.19,914.88Z"/><path class="cls-3" d="M478,910.51c0-15.8.21-31.6-.13-47.39-.1-4.66,2.22-4.17,5.28-4.36,3.48-.22,4.65.66,4.62,4.42-.17,28.67,0,57.34-.22,86,0,4.79,1.43,5.75,5.88,5.68,15.21-.27,30.42,0,45.63-.17,3.26,0,4.74.33,4.78,4.28,0,4.15-1.82,4.16-4.88,4.14-18.72-.09-37.45-.2-56.17.07-4.4.06-4.93-1.49-4.88-5.3C478.07,942.1,478,926.3,478,910.51Z"/><path class="cls-5" d="M276.45,148.67c-3.11,1.91-4.33,6.79-9.24,5.86a25.09,25.09,0,0,1,7.81-7.14C276.24,147,276.54,147.61,276.45,148.67Z"/><path class="cls-6" d="M276.45,148.67,275,147.39a32.28,32.28,0,0,1,8.5-7l1.29,1.53Z"/><path d="M295.1,311.58c36.25-76.77,94.46-126.13,179.4-139.32,122.18-19,235.55,60.5,260.82,181.56,8.08,38.72,5.77,77.16-5.74,115-.51,1.67-.88,3.38-1.32,5.09-27.14,72.48-74.64,125.25-149,150.44-134,45.38-276.42-39.9-300.64-179.28-7-40.06-3.38-79.24,10.16-117.54.32-.91.5-1.87.75-2.8.13-3.18,1.84-5.76,3.22-8.46l.07,0C293.62,314.75,293.26,312.63,295.1,311.58Z"/><path class="cls-7" d="M292.75,316.29a21.4,21.4,0,0,1-3.22,8.46l-1.11-1.28C289.45,320.83,290.08,317.94,292.75,316.29Z"/><path class="cls-8" d="M295.1,311.58c-.42,1.74-.73,3.54-2.28,4.73C292.15,314,292.35,312.19,295.1,311.58Z"/><path d="M677.53,910.85c-.05,12.12-2.07,23.78-10,33.46C657.44,956.72,644,959.56,629,956.17S606,942.08,602.47,928c-3.64-14.5-3.2-29.11,3.38-42.85,7.17-15,20.34-21.89,37.38-20.31,15.58,1.44,27.18,11.49,31.9,27.52A66.88,66.88,0,0,1,677.53,910.85Z"/></svg>