<svg id="Layer_1" data-name="Layer 1" xmlns="http://www.w3.org/2000/svg" viewBox="0 0 99.5 99.76"><defs><style>.cls-1{fill:#fefefe;}.cls-2{fill:#becaef;}.cls-3{fill:#405ff4;}.cls-4{fill:#fdfdfd;}.cls-5{fill:#7e92e5;}.cls-6{fill:#94a5eb;}.cls-7{fill:#9da9d5;}.cls-8{fill:#8794c4;}</style></defs><title>telos-black(100x100)</title><rect width="99.5" height="99.5"/><path d="M6,99.62q0-49.48,0-99C6,.17,6.14.1,6.58.1q43.28,0,86.56,0c.44,0,.56.06.56.54q0,49.48,0,99a1.23,1.23,0,0,1-.61.05H6.65A1.23,1.23,0,0,1,6,99.62Z"/><path class="cls-1" d="M6,99.62H93.7s.06.12-.06.12H6.55C6.38,99.72,6.16,99.85,6,99.62Z"/><path class="cls-2" d="M27.55,13.64A33.63,33.63,0,0,1,81.9,31.9C84.41,43.19,81.73,53.31,74,62a28.38,28.38,0,0,1-6.8,5.38,25.58,25.58,0,0,1-8.61,3.14,28.06,28.06,0,0,1-15.89-1.76,27.47,27.47,0,0,1-10-7.09A27.83,27.83,0,0,1,25.67,46.2a28.12,28.12,0,0,1,1.15-12.07A8.74,8.74,0,0,1,28,31.42c.11,0,.17,0,.22.1a.77.77,0,0,1-.06.55,21.54,21.54,0,0,0-1.21,8.67A22.31,22.31,0,0,0,59.25,59.28a22.62,22.62,0,0,0,9.9-10c.58-1.11,1.06-2.26,1.54-3.42a10.2,10.2,0,0,0,.86-2.52,29.24,29.24,0,0,0,.94-6.51A27.83,27.83,0,0,0,48,8.4a27.75,27.75,0,0,0-19.59,5,1.47,1.47,0,0,1-.75.38C27.58,13.8,27.5,13.76,27.55,13.64Z"/><path class="cls-3" d="M27.68,13.79a27.92,27.92,0,0,1,12-5.29,27.2,27.2,0,0,1,15.71,1.68,27.65,27.65,0,0,1,16.18,18,26.08,26.08,0,0,1,1.11,7,28.14,28.14,0,0,1-1.61,10.37c-.07.19-.09.41-.29.53-.16-.29,0-.56.06-.82a23.9,23.9,0,0,0,.87-5.49,21.56,21.56,0,0,0-5.3-15.31,21.37,21.37,0,0,0-14.35-7.66,21.83,21.83,0,0,0-16.77,4.94,22.4,22.4,0,0,0-5.69,7.09c-.25.47-.52.92-.77,1.39-.11.16-.29.28-.3.5a.6.6,0,0,1-.05.14c-.15.2-.21.46-.44.59A28,28,0,0,0,31.7,60.21a28,28,0,0,0,35.1,7.32.71.71,0,0,1,.42-.14,26.3,26.3,0,0,1-5.6,2.84,33.53,33.53,0,0,1-44.67-23c-2.8-11-.41-21.1,6.79-30,.66-.82,1.48-1.51,2.23-2.26.35-.11.52-.49.85-.62A1.81,1.81,0,0,1,27.68,13.79Z"/><path class="cls-1" d="M62.06,93.84a4.39,4.39,0,0,1-4.47-3.66,6.11,6.11,0,0,1,1.1-5.52,4.61,4.61,0,0,1,7.81,1.82,6.59,6.59,0,0,1-.29,4.82A4.25,4.25,0,0,1,62.06,93.84Z"/><path class="cls-1" d="M75.42,93.81a3.43,3.43,0,0,1-3.34-1.61,2.35,2.35,0,0,1-.33-1c0-.21-.25-.57.2-.62s.67-.12.76.44a2.23,2.23,0,0,0,2,1.93,3.75,3.75,0,0,0,2.23-.17A1.86,1.86,0,0,0,78.09,91,1.7,1.7,0,0,0,77,89.31a20.76,20.76,0,0,0-2.56-.74c-.31-.1-.62-.18-.91-.31a2.34,2.34,0,0,1-1.56-2.17,2.42,2.42,0,0,1,1.37-2.42,4.27,4.27,0,0,1,3.78-.12,2.67,2.67,0,0,1,1.63,2.29c0,.16.09.4-.19.34s-.57.24-.71-.21A2.63,2.63,0,0,0,74,84.29,1.77,1.77,0,0,0,72.87,86a1.63,1.63,0,0,0,1.18,1.51c1,.39,2,.51,3,.83a2.49,2.49,0,0,1,2,2.17,2.88,2.88,0,0,1-3,3.3C75.83,93.82,75.63,93.81,75.42,93.81Z"/><path class="cls-1" d="M34.33,88.49c0-1.52,0-3,0-4.55,0-.34,0-.5.45-.49,2,0,3.91,0,5.86,0,.35,0,.45.08.45.44s-.17.38-.45.38c-1.63,0-3.26,0-4.89,0-.38,0-.47.11-.46.48,0,.93,0,1.86,0,2.79,0,.32.09.41.41.41,1.44,0,2.88,0,4.33,0,.33,0,.52,0,.51.44s-.23.39-.5.39c-1.44,0-2.88,0-4.33,0-.31,0-.42.06-.42.4q0,1.62,0,3.24c0,.34.12.4.42.4h5c.3,0,.52,0,.52.42s-.21.39-.49.39c-2,0-4,0-6,0-.35,0-.44-.08-.44-.44C34.35,91.6,34.33,90,34.33,88.49Z"/><path class="cls-4" d="M26.25,88.94c0,1.4,0,2.81,0,4.21,0,.42-.17.44-.5.45s-.49,0-.49-.45c0-2.79,0-5.57,0-8.36,0-.42-.09-.56-.53-.53-.76,0-1.52,0-2.27,0-.31,0-.43-.06-.42-.4s0-.43.39-.43q3.3,0,6.6,0c.33,0,.41.1.41.42s-.11.41-.42.41c-.78,0-1.55,0-2.33,0-.37,0-.48.1-.48.47C26.26,86.13,26.25,87.54,26.25,88.94Z"/><path class="cls-1" d="M46.44,88.48c0-1.53,0-3.07,0-4.6,0-.37.12-.44.45-.43s.51,0,.51.43c0,2.79,0,5.57,0,8.36,0,.46.13.56.57.55,1.48,0,3,0,4.43,0,.31,0,.46,0,.47.41s-.17.41-.47.41c-1.82,0-3.64,0-5.46,0-.42,0-.48-.14-.48-.51C46.45,91.55,46.44,90,46.44,88.48Z"/><path class="cls-5" d="M26.86,14.45c-.3.19-.42.66-.9.57a2.44,2.44,0,0,1,.76-.69C26.84,14.28,26.87,14.34,26.86,14.45Z"/><path class="cls-6" d="M26.86,14.45l-.14-.12a3.14,3.14,0,0,1,.83-.68l.13.15Z"/><path d="M28.68,30.28C32.2,22.82,37.85,18,46.11,16.74A22.41,22.41,0,0,1,70.89,45.56c0,.16-.09.33-.13.49-2.64,7-7.25,12.17-14.48,14.62A22.42,22.42,0,0,1,28.06,31.83c0-.09,0-.18.07-.27a2,2,0,0,1,.31-.82h0C28.53,30.58,28.5,30.38,28.68,30.28Z"/><path class="cls-7" d="M28.45,30.73a2.08,2.08,0,0,1-.31.82L28,31.43A1.23,1.23,0,0,1,28.45,30.73Z"/><path class="cls-8" d="M28.68,30.28a.73.73,0,0,1-.22.46C28.39,30.52,28.41,30.34,28.68,30.28Z"/><path d="M65.84,88.49a4.65,4.65,0,0,1-1.52,3.82,3.62,3.62,0,0,1-5.63-1.68,6.18,6.18,0,0,1,.13-4.49A3.42,3.42,0,0,1,62.37,84a3.49,3.49,0,0,1,3.23,2.67A6.46,6.46,0,0,1,65.84,88.49Z"/></svg>